# Blender v2.79 (sub 7) OBJ File: ''
# www.blender.org
mtllib cubemap.mtl
o Cube_Cube.001
v 1.000000 -1.000000 -1.000000
v 1.000000 -1.000000 1.000000
v -1.000000 -1.000000 -1.000000
v -1.000000 -1.000000 1.000000
v 1.000000 1.000000 -1.000000
v 1.000000 1.000000 1.000000
v -1.000000 1.000000 -1.000000
v -1.000000 1.000000 1.000000
vt 0.000000 0.000000
vt 1.000000 0.000000
vt 1.000000 1.000000
vt 0.000000 1.000000
vt 0.000000 0.000000
vt 1.000000 0.000000
vt 1.000000 1.000000
vt 0.000000 1.000000
vt 0.000000 0.000000
vt 0.000000 1.000000
vt 1.000000 0.000000
vt 1.000000 1.000000
vt 0.032716 0.151881
vt 0.032716 0.035816
vt 0.148781 0.035816
vt 0.148781 0.151881
vt 0.263138 0.988630
vt 0.263138 0.743062
vt 0.017571 0.743062
vt 0.017571 0.988630
vn 0.0000 1.0000 0.0000
vn 1.0000 0.0000 0.0000
vn 0.0000 -1.0000 0.0000
vn -1.0000 0.0000 0.0000
vn 0.0000 0.0000 1.0000
vn 0.0000 0.0000 -1.0000
usemtl None
s off
f 1/1/1 3/2/1 4/3/1 2/4/1
f 3/5/2 7/6/2 8/7/2 4/8/2
f 7/6/3 5/9/3 6/10/3 8/7/3
f 5/11/4 1/1/4 2/4/4 6/12/4
f 3/13/5 1/14/5 5/15/5 7/16/5
f 8/17/6 6/18/6 2/19/6 4/20/6
